<svg width="30" height="31" viewBox="0 0 30 31" fill="none" xmlns="http://www.w3.org/2000/svg">
<g filter="url(#filter0_d_3308_183)">
<path d="M11.5 14.25C11.5 16.17 13.08 17.75 15 17.75C16.92 17.75 18.5 16.17 18.5 14.25" stroke="#040B14" stroke-width="1.5" stroke-miterlimit="10" stroke-linecap="round" stroke-linejoin="round"/>
<path d="M11.8104 2L8.19043 5.63" stroke="#040B14" stroke-width="1.5" stroke-miterlimit="10" stroke-linecap="round" stroke-linejoin="round"/>
<path d="M18.1904 2L21.8104 5.63" stroke="#040B14" stroke-width="1.5" stroke-miterlimit="10" stroke-linecap="round" stroke-linejoin="round"/>
<path d="M5 7.84961C5 5.99961 5.99 5.84961 7.22 5.84961H22.78C24.01 5.84961 25 5.99961 25 7.84961C25 9.99961 24.01 9.84961 22.78 9.84961H7.22C5.99 9.84961 5 9.99961 5 7.84961Z" stroke="#040B14" stroke-width="1.5"/>
<path d="M6.5 10L7.91 18.64C8.23 20.58 9 22 11.86 22H17.89C21 22 21.46 20.64 21.82 18.76L23.5 10" stroke="#040B14" stroke-width="1.5" stroke-linecap="round"/>
</g>
<defs>
<filter id="filter0_d_3308_183" x="0.25" y="1.25" width="29.5" height="29.5" filterUnits="userSpaceOnUse" color-interpolation-filters="sRGB">
<feFlood flood-opacity="0" result="BackgroundImageFix"/>
<feColorMatrix in="SourceAlpha" type="matrix" values="0 0 0 0 0 0 0 0 0 0 0 0 0 0 0 0 0 0 127 0" result="hardAlpha"/>
<feOffset dy="4"/>
<feGaussianBlur stdDeviation="2"/>
<feComposite in2="hardAlpha" operator="out"/>
<feColorMatrix type="matrix" values="0 0 0 0 0 0 0 0 0 0 0 0 0 0 0 0 0 0 0.25 0"/>
<feBlend mode="normal" in2="BackgroundImageFix" result="effect1_dropShadow_3308_183"/>
<feBlend mode="normal" in="SourceGraphic" in2="effect1_dropShadow_3308_183" result="shape"/>
</filter>
</defs>
</svg>
